<?xml version="1.0" encoding="utf-8"?>
<!-- Generator: Adobe Illustrator 17.0.0, SVG Export Plug-In . SVG Version: 6.00 Build 0)  -->
<!DOCTYPE svg PUBLIC "-//W3C//DTD SVG 1.1//EN" "http://www.w3.org/Graphics/SVG/1.1/DTD/svg11.dtd">
<svg version="1.1" id="Layer_1" xmlns="http://www.w3.org/2000/svg" xmlns:xlink="http://www.w3.org/1999/xlink" x="0px" y="0px"
	 width="800px" height="34px" viewBox="0 0 800 34" enable-background="new 0 0 800 34" xml:space="preserve">
<radialGradient id="SVGID_1_" cx="615.3737" cy="-243.6614" r="325.8611" gradientTransform="matrix(1.4932 0 0 0.1874 -521.7635 57.1833)" gradientUnits="userSpaceOnUse">
	<stop  offset="0" style="stop-color:#FF4000"/>
	<stop  offset="1" style="stop-color:#FFFFFF"/>
</radialGradient>
<polygon opacity="0.8" fill="url(#SVGID_1_)" enable-background="new    " points="-4,16.735 50.015,16.735 51.012,16.735 
	51.551,16.843 58.709,18.278 64.703,16.274 66.172,15.783 68.033,16.253 77.848,18.729 84.662,15.086 86.316,14.201 88.19,15.078 
	96.009,18.737 103.001,16.867 104.415,16.489 106.18,16.843 113.337,18.278 121.153,15.666 123.01,15.045 124.59,15.678 
	132.3,18.771 139.42,16.867 140.834,16.489 142.6,16.843 149.392,18.205 157.501,13.868 158.868,13.137 160.973,13.841 
	177.079,19.224 184.815,15.086 186.469,14.201 188.344,15.078 195.983,18.652 203.097,16.274 204.386,15.843 206.333,16.234 
	213.126,17.596 221.235,13.26 223.289,12.162 224.8,13.273 232.508,18.94 239.46,15.687 240.54,15.182 242.754,15.626 
	249.546,16.988 257.654,12.651 259.912,11.443 261.226,12.673 268.92,19.873 275.857,15.7 276.968,15.032 279.279,15.65 
	285.936,17.43 290.859,13.882 293.389,12.058 294.466,13.904 296.438,17.287 303.151,11.453 305.191,9.681 306.757,11.461 
	314.231,19.953 321.361,13.281 322.674,12.052 324.932,13.26 332.069,17.076 339.585,12.052 341.605,10.702 343.171,12.062 
	350.9,18.78 357.808,15.086 359.683,14.083 361.358,15.091 368.181,19.196 375.983,10.851 377.894,8.806 379.596,10.854 
	386.757,19.47 394.193,9.032 395.955,6.557 397.806,9.031 405.198,18.914 412.403,10.245 414.155,8.136 416.016,10.243 
	423.239,18.423 430.633,13.271 432.546,11.94 434.211,13.277 441.385,19.03 448.829,12.064 450.33,10.659 452.414,12.052 
	459.93,17.076 467.068,13.26 469.263,12.085 470.638,13.279 477.703,19.419 485.243,10.852 486.872,8.998 488.847,10.847 
	495.621,17.185 497.533,13.904 498.61,12.058 501.139,13.882 506.063,17.43 512.721,15.65 514.941,15.056 516.135,15.694 
	523.043,19.388 530.774,12.671 532.147,11.476 534.344,12.651 542.453,16.988 549.246,15.626 551.339,15.206 552.517,15.678 
	559.445,18.457 567.206,13.27 568.796,12.207 570.764,13.26 578.872,17.596 585.666,16.234 587.613,15.843 588.902,16.274 
	596.016,18.652 603.655,15.078 605.528,14.201 607.183,15.086 614.92,19.224 631.025,13.841 633.13,13.137 634.497,13.868 
	642.606,18.205 649.399,16.843 651.164,16.489 652.578,16.867 659.699,18.771 667.409,15.678 668.988,15.045 670.845,15.666 
	678.663,18.278 685.819,16.843 687.584,16.489 688.999,16.867 696.272,18.812 703.864,16.274 705.453,15.744 707.238,16.265 
	715.917,18.804 722.089,16.879 723.152,16.547 725.097,16.807 732.88,17.847 740.661,16.807 741.202,16.735 741.984,16.735 
	796,16.735 796,17.192 742.767,17.192 734.202,18.337 732.88,18.514 731.556,18.337 724.397,17.38 717.656,19.483 716.023,19.992 
	714.298,19.487 705.678,16.966 698.161,19.478 696.647,19.984 694.817,19.494 687.127,17.438 679.788,18.91 677.839,19.3 
	676.55,18.87 669.303,16.447 661.777,19.466 660.381,20.025 658.397,19.494 650.706,17.438 643.367,18.91 641.055,19.373 
	640.06,18.841 632.322,14.703 616.217,20.086 614.111,20.789 612.745,20.058 605.294,16.074 598.064,19.457 596.596,20.143 
	594.606,19.478 586.791,16.866 579.633,18.301 577.321,18.765 576.325,18.232 569.188,14.416 561.672,19.44 560.327,20.338 
	558.15,19.466 550.224,16.286 543.214,17.692 540.902,18.156 539.905,17.624 532.999,13.93 525.267,20.647 523.892,21.842 
	521.696,20.667 513.785,16.436 506.902,18.277 504.453,18.931 503.464,18.219 500.085,15.782 497.967,19.414 496.685,21.611 
	494.353,19.428 487.224,12.756 479.75,21.249 478.183,23.028 476.143,21.256 468.413,14.538 461.505,18.232 459.536,19.285 
	457.949,18.223 450.927,13.529 443.324,20.645 441.663,22.199 439.732,20.65 432.293,14.683 424.594,20.047 422.378,21.59 
	421.002,20.031 414.263,12.401 406.91,21.247 405.01,23.534 403.298,21.244 396.043,11.546 388.701,21.852 387.032,24.195 
	385.088,21.855 377.685,12.948 370.491,20.641 369.188,22.034 366.907,20.661 359.477,16.192 352.247,20.058 350.049,21.233 
	348.675,20.038 341.136,13.487 334.051,18.223 332.461,19.285 330.494,18.232 323.647,14.571 315.856,21.863 313.88,23.711 
	312.249,21.857 304.711,13.291 297.646,19.43 295.253,21.509 294.033,19.414 291.914,15.782 288.534,18.219 287.545,18.931 
	285.098,18.277 278.304,16.46 270.309,21.27 268.141,22.574 266.731,21.254 258.94,13.962 252.094,17.624 251.097,18.156 
	248.785,17.692 241.894,16.31 233.869,20.065 231.717,21.072 230.319,20.045 222.726,14.461 215.673,18.232 214.678,18.765 
	212.365,18.301 205.208,16.866 197.393,19.478 195.402,20.143 193.935,19.457 186.705,16.074 179.254,20.058 177.887,20.789 
	175.782,20.086 159.677,14.703 151.94,18.841 150.944,19.373 148.632,18.91 141.292,17.438 133.601,19.494 131.616,20.025 
	130.223,19.466 122.696,16.447 115.448,18.87 114.159,19.3 112.212,18.91 104.873,17.438 97.182,19.494 95.069,20.059 
	93.782,19.457 86.551,16.073 80.238,19.449 79.084,20.066 76.837,19.5 66.635,16.926 60.82,18.87 59.53,19.3 57.583,18.91 
	49.017,17.192 -4,17.192 "/>
<radialGradient id="SVGID_2_" cx="619.9449" cy="-155.8799" r="318.3488" gradientTransform="matrix(1.4932 0 0 1.1213 -521.7635 195.514)" gradientUnits="userSpaceOnUse">
	<stop  offset="0" style="stop-color:#E0E0E0"/>
	<stop  offset="1" style="stop-color:#FFFFFF"/>
</radialGradient>
<polygon fill="url(#SVGID_2_)" points="3.938,19.645 57.953,19.645 58.95,19.645 59.489,19.559 66.647,18.418 72.641,20.011 
	74.11,20.4 75.971,20.028 85.786,18.059 92.6,20.955 94.254,21.658 96.128,20.961 103.947,18.054 110.939,19.54 112.353,19.841 
	114.118,19.559 121.275,18.418 129.091,20.494 130.948,20.988 132.528,20.485 140.238,18.027 147.358,19.54 148.772,19.841 
	150.538,19.559 157.33,18.476 165.439,21.923 166.806,22.504 168.911,21.945 185.017,17.668 192.753,20.955 194.407,21.658 
	196.282,20.961 203.921,18.12 211.035,20.011 212.324,20.353 214.271,20.042 221.064,18.961 229.173,22.407 231.227,23.279 
	232.738,22.396 240.446,17.892 247.398,20.478 248.478,20.879 250.692,20.527 257.484,19.444 265.592,22.89 267.85,23.85 
	269.164,22.874 276.858,17.151 283.795,20.467 284.906,20.999 287.217,20.507 293.874,19.093 298.797,21.913 301.327,23.362 
	302.404,21.895 304.376,19.206 311.089,23.842 313.129,25.251 314.695,23.836 322.169,17.087 329.299,22.389 330.612,23.367 
	332.87,22.407 340.007,19.374 347.523,23.367 349.543,24.439 351.109,23.359 358.838,18.02 365.746,20.955 367.621,21.752 
	369.296,20.952 376.119,17.69 383.921,24.321 385.832,25.946 387.534,24.318 394.695,17.472 402.131,25.767 403.893,27.734 
	405.744,25.767 413.136,17.914 420.341,24.803 422.093,26.478 423.954,24.804 431.177,18.304 438.571,22.398 440.484,23.456 
	442.149,22.393 449.323,17.82 456.767,23.357 458.268,24.473 460.352,23.367 467.868,19.374 475.006,22.407 477.201,23.34 
	478.576,22.392 485.641,17.512 493.181,24.321 494.81,25.793 496.785,24.324 503.559,19.288 505.471,21.895 506.548,23.362 
	509.077,21.913 514.001,19.093 520.659,20.507 522.879,20.979 524.073,20.472 530.981,17.536 538.712,22.875 540.085,23.824 
	542.282,22.89 550.391,19.444 557.184,20.527 559.277,20.86 560.455,20.485 567.383,18.277 575.144,22.399 576.734,23.242 
	578.702,22.407 586.81,18.961 593.604,20.042 595.551,20.353 596.84,20.011 603.954,18.12 611.593,20.961 613.466,21.658 
	615.121,20.955 622.858,17.668 638.963,21.945 641.068,22.504 642.435,21.923 650.544,18.476 657.337,19.559 659.102,19.841 
	660.516,19.54 667.637,18.027 675.347,20.485 676.926,20.988 678.783,20.494 686.601,18.418 693.757,19.559 695.522,19.841 
	696.937,19.54 704.21,17.994 711.802,20.011 713.391,20.433 715.176,20.018 723.855,18.001 730.027,19.531 731.09,19.794 
	733.035,19.587 740.818,18.761 748.599,19.587 749.14,19.645 749.922,19.645 803.938,19.645 803.938,19.282 750.705,19.282 
	742.14,18.372 740.818,18.231 739.494,18.372 732.335,19.133 725.594,17.461 723.961,17.056 722.236,17.457 713.616,19.462 
	706.099,17.465 704.585,17.063 702.755,17.452 695.065,19.086 687.726,17.916 685.777,17.607 684.488,17.949 677.241,19.874 
	669.715,17.475 668.319,17.03 666.335,17.452 658.644,19.086 651.305,17.916 648.993,17.548 647.998,17.972 640.26,21.259 
	624.155,16.981 622.049,16.423 620.683,17.003 613.232,20.17 606.002,17.482 604.534,16.937 602.544,17.465 594.729,19.541 
	587.571,18.4 585.259,18.031 584.263,18.455 577.126,21.488 569.61,17.495 568.265,16.781 566.088,17.475 558.162,20.001 
	551.152,18.884 548.84,18.516 547.843,18.938 540.937,21.874 533.205,16.535 531.83,15.587 529.634,16.52 521.723,19.882 
	514.84,18.42 512.391,17.899 511.402,18.465 508.023,20.402 505.905,17.516 504.623,15.769 502.291,17.504 495.162,22.807 
	487.688,16.058 486.121,14.643 484.081,16.052 476.351,21.391 469.443,18.455 467.474,17.618 474.438,13.717 458.865,22.192 
	451.262,16.538 449.601,15.302 447.67,16.534 440.231,21.276 432.532,17.013 430.316,15.787 428.94,17.025 422.201,23.09 
	414.848,16.059 412.948,14.241 411.236,16.061 403.981,23.769 396.639,15.579 394.97,13.717 393.026,15.575 385.623,22.654 
	378.429,16.541 377.126,15.434 374.845,16.525 367.415,20.076 360.185,17.003 357.987,16.071 356.613,17.02 349.074,22.226 
	341.989,18.463 340.399,17.618 338.432,18.455 331.585,21.365 323.794,15.57 321.818,14.101 320.187,15.574 312.649,22.382 
	305.584,17.503 303.191,15.851 301.971,17.516 299.852,20.402 296.472,18.465 295.483,17.899 293.036,18.42 286.242,19.863 
	278.247,16.04 276.079,15.004 274.669,16.054 266.878,21.848 260.032,18.938 259.035,18.516 256.723,18.884 249.832,19.983 
	241.807,16.998 239.655,16.197 238.257,17.014 230.664,21.452 223.611,18.455 222.616,18.031 220.303,18.4 213.146,19.541 
	205.331,17.465 203.34,16.937 201.873,17.482 194.643,20.17 187.192,17.003 185.825,16.423 183.72,16.981 167.615,21.259 
	159.878,17.972 158.882,17.548 156.57,17.916 149.23,19.086 141.539,17.452 139.554,17.03 138.161,17.475 130.634,19.874 
	123.386,17.949 122.097,17.607 120.15,17.916 112.811,19.086 105.12,17.452 103.007,17.003 101.72,17.482 94.489,20.17 
	88.176,17.487 87.022,16.998 84.775,17.448 74.573,19.493 68.758,17.949 67.468,17.607 65.521,17.916 56.955,19.282 3.938,19.282 
	"/>
</svg>
