<?xml version="1.0" encoding="utf-8"?>
<!-- Generator: Adobe Illustrator 17.0.0, SVG Export Plug-In . SVG Version: 6.00 Build 0)  -->
<!DOCTYPE svg PUBLIC "-//W3C//DTD SVG 1.1//EN" "http://www.w3.org/Graphics/SVG/1.1/DTD/svg11.dtd">
<svg version="1.1" id="Layer_1" xmlns="http://www.w3.org/2000/svg" xmlns:xlink="http://www.w3.org/1999/xlink" x="0px" y="0px"
	 width="120px" height="120px" viewBox="0 0 120 120" enable-background="new 0 0 120 120" xml:space="preserve">
<g>
	<path fill="none" d="M102.036,70.633c-13.124-5.649-31.536-0.402-41.461,8.331c-5.893,5.185-11.869,12.797-10.624,21.142
		c1.052,7.069,6.79,11.661,13.239,13.758c13.192,4.293,30.861,0.137,39.946-10.554c8.095-9.53,6.499-23.038,6.84-34.716
		c0.598-20.249,1.102-40.505,1.272-60.759c0.05-5.783-9.026-5.794-8.988,0C102.362,22.816,102.085,64.669,102.036,70.633z
		 M78.693,107.639c-10.815,1.576-28.282-3.56-18.563-17.405C64.504,84,71.169,79.316,78.387,77.046
		c6.84-2.149,16.087-3.451,23.58-1.478c-0.08,4.066-0.225,8.126-0.5,12.166C100.656,99.543,89.4,106.072,78.693,107.639z"/>
	<path fill="none" d="M16.715,84.033c8.054,1.511,17.07,2.276,25.228,1.317c4.642-0.544,4.668-7.911,0-7.328
		c-8.299,1.03-16.504,2.354-24.847,3.181C15.614,81.351,14.987,83.707,16.715,84.033z"/>
	<path fill="none" d="M13.907,61.477c7.43,2.425,16.516,1.755,24.278,1.977c8.085,0.233,16.82,1.315,24.805,0.031
		c4.329-0.7,4.418-8.225,0-8.837c-8.04-1.112-41.572-0.416-49.083,1.78C11.365,57.172,11.477,60.683,13.907,61.477z"/>
	<path fill="none" d="M85.963,30.141c-5.682-0.579-58.452,1.748-70.118,2.344c-4.293,0.222-4.118,6.072,0,6.545
		c11.89,1.365,24.033,1.451,35.993,1.456c5.847,0.002,11.689-0.062,17.532-0.196c5.843-0.139,12.104,0.227,17.82-1.067
		C92.631,37.993,90.828,30.634,85.963,30.141z"/>
	<path fill="none" d="M90.038,8.022C77.84,4.748,38.845,8.128,32.261,8.641c-6.22,0.479-13.28,0.203-19.247,2.072
		c-1.229,0.387-1.344,2.279,0,2.609c5.785,1.428,63.447,0.326,76.039,1.989C93.26,15.864,93.975,9.08,90.038,8.022z"/>
</g>
</svg>
